<?xml version="1.0" encoding="UTF-8"?>
<!-- Generator: visioncortex VTracer 0.6.4 -->
<svg version="1.1" xmlns="http://www.w3.org/2000/svg" width="512" height="512">
<path d="M0 0 C0 0.66 0 1.32 0 2 C1.18 2.28 1.18 2.28 2.38 2.56 C10.72 5.87 18.38 12.01 24 19 C25.31 22.44 25.31 22.44 26 25 C26.99 25.33 27.98 25.66 29 26 C33.4 31.29 35.85 37.97 38.31 44.31 C38.85 45.65 38.85 45.65 39.4 47.02 C42 53.6 42 53.6 42 57 C42.66 57 43.32 57 44 57 C45.3 60.96 46.59 64.91 47.88 68.88 C48.42 70.54 48.42 70.54 48.98 72.23 C54.65 89.77 54.65 89.77 52.94 95.62 C51.08 98.85 49.16 102.01 47.14 105.13 C45.8 107.33 44.84 109.57 44 112 C43.34 112 42.68 112 42 112 C41.88 112.85 41.75 113.71 41.62 114.59 C40.99 118.04 40.07 121.23 39 124.56 C36.95 130.95 35.87 136.27 36 143 C37.73 139.84 38.71 136.73 39.62 133.25 C40.02 131.77 40.02 131.77 40.41 130.27 C40.61 129.52 40.8 128.77 41 128 C41.66 128 42.32 128 43 128 C43.1 127.02 43.2 126.04 43.3 125.03 C43.94 120.59 45.46 116.68 47.19 112.56 C47.5 111.82 47.81 111.07 48.13 110.3 C50.45 104.89 53 100.38 57 96 C57.66 96 58.32 96 59 96 C59.22 95.47 59.45 94.94 59.68 94.39 C69.01 77.56 86.73 69.94 104 64 C104.85 63.64 105.71 63.28 106.59 62.9 C112.77 60.59 119.18 60.81 125.69 60.81 C126.67 60.81 127.64 60.81 128.65 60.81 C135.26 60.86 141.58 61.28 148 63 C148 63.66 148 64.32 148 65 C149.24 65.21 150.48 65.41 151.75 65.62 C164.38 68.42 178.75 77.05 186 88 C186 88.66 186 89.32 186 90 C186.59 90.23 187.18 90.46 187.79 90.7 C195.94 95.48 199.7 108.42 202 117 C202.13 119.91 202.13 119.91 202 122 C202.66 122 203.32 122 204 122 C204.09 126.48 204.14 130.96 204.19 135.44 C204.23 137.33 204.23 137.33 204.26 139.26 C204.32 146.49 203.83 152.33 201 159 C200.42 160.69 200.42 160.69 199.82 162.41 C193.55 179.48 193.55 179.48 186 183 C185.32 184.32 184.65 185.66 184 187 C174.71 197.74 160.56 205.09 146.41 206.2 C130.09 206.79 112.52 206.04 99.49 194.68 C96.43 191.65 93.74 188.32 91 185 C90.14 184.14 89.27 183.29 88.38 182.4 C78.7 172.64 75.93 155.57 75.81 142.25 C75.87 136.05 76.19 128.62 79 123 C75.7 123.33 72.4 123.66 69 124 C68.42 127.98 67.85 131.96 67.29 135.94 C67.01 137.93 66.72 139.91 66.42 141.89 C64.18 157.93 65.06 173.58 66.28 189.66 C70.85 250.86 70.85 250.86 65 279 C64.86 279.72 64.71 280.44 64.56 281.18 C62.42 291.51 58.88 301.22 55 311 C54.66 311.93 54.32 312.85 53.97 313.8 C51.02 321.74 47.15 330.06 41 336 C40.44 337.01 39.89 338.02 39.31 339.06 C35.92 345.19 31.45 351.25 25.94 355.62 C23.47 357.62 21.89 359.31 19.94 361.75 C15.2 367.34 9.08 371.03 3 375 C1.94 375.75 0.88 376.5 -0.21 377.27 C-3 379 -3 379 -6 379 C-6 379.66 -6 380.32 -6 381 C-14.79 385.69 -23.3 389.51 -33 392 C-34.04 392.3 -35.09 392.6 -36.16 392.91 C-55.4 397.68 -76.39 396.6 -95 390 C-96.55 389.48 -96.55 389.48 -98.13 388.95 C-103.39 387.04 -107.68 384.57 -112 381 C-112 380.34 -112 379.68 -112 379 C-112.57 378.73 -113.14 378.46 -113.73 378.19 C-121.69 374.02 -128.17 367.53 -133 360 C-133 359.01 -133 358.02 -133 357 C-133.99 356.67 -134.98 356.34 -136 356 C-137.43 353.93 -138.66 351.94 -139.88 349.75 C-140.22 349.13 -140.57 348.51 -140.93 347.87 C-149 333.14 -149 333.14 -149 326 C-149.66 326 -150.32 326 -151 326 C-153.69 316.51 -156.19 307.06 -157.75 297.31 C-157.87 296.62 -157.98 295.92 -158.1 295.2 C-160.16 281.46 -160.16 267.53 -160.13 253.67 C-160.12 250.94 -160.13 248.2 -160.14 245.47 C-160.15 218.44 -160.15 218.44 -158 212 C-157.34 212 -156.68 212 -156 212 C-155.67 211.01 -155.34 210.02 -155 209 C-152.71 207.83 -152.71 207.83 -149.94 206.81 C-149.02 206.47 -148.1 206.12 -147.15 205.77 C-146.44 205.52 -145.73 205.26 -145 205 C-145.66 204.34 -146.32 203.68 -147 203 C-147.91 203.34 -148.81 203.68 -149.75 204.02 C-150.96 204.47 -152.18 204.92 -153.44 205.38 C-154.63 205.82 -155.83 206.26 -157.06 206.71 C-174.31 212.56 -195.08 212.65 -211.59 204.76 C-218.74 201.02 -223.29 196.98 -227.57 190.12 C-228.89 188 -228.89 188 -230.55 186.53 C-232.41 184.57 -233.15 182.64 -234.12 180.12 C-234.46 179.28 -234.79 178.44 -235.13 177.57 C-239.24 165.39 -238.22 150.63 -232.62 139.19 C-230.64 136.51 -228.41 134.29 -226 132 C-224.92 130.86 -224.92 130.86 -223.81 129.69 C-222 128 -222 128 -220 128 C-219.67 127.01 -219.34 126.02 -219 125 C-216.86 123.87 -216.86 123.87 -214.19 122.88 C-212.88 122.38 -212.88 122.38 -211.54 121.87 C-203.47 119.11 -194.3 118.65 -186.23 121.77 C-178.75 125.91 -172.84 131.89 -170 140 C-169.48 143.03 -169.44 145.94 -169.5 149 C-169.48 150.13 -169.48 150.13 -169.45 151.29 C-169.5 157.87 -171.41 163.06 -175.78 168.02 C-176.35 168.47 -176.92 168.92 -177.5 169.38 C-178.07 169.84 -178.63 170.3 -179.22 170.77 C-183.06 173.42 -185.74 174.28 -190.44 174.25 C-191.36 174.26 -192.29 174.26 -193.25 174.27 C-197.11 173.89 -199.87 173 -202.8 170.41 C-206.53 165.7 -207.65 162.29 -207.5 156.3 C-206.89 153.52 -205.94 152.07 -204 150 C-200.35 148.78 -197.84 148.61 -194 149 C-191.67 150.46 -189.99 152.06 -188 154 C-186.8 149.15 -186.8 149.15 -188.44 144.69 C-188.95 144.13 -189.47 143.57 -190 143 C-190 142.34 -190 141.68 -190 141 C-195.15 139.28 -201.92 138.69 -207.02 140.86 C-208.76 142.04 -208.76 142.04 -211 144 C-211.99 144.33 -212.98 144.66 -214 145 C-214 147.64 -214 150.28 -214 153 C-212.68 153.66 -211.36 154.32 -210 155 C-210 155.66 -210 156.32 -210 157 C-212.31 157 -214.62 157 -217 157 C-217.35 163.27 -216.84 169.29 -214 175 C-212.07 176.21 -212.07 176.21 -210 177 C-209.24 177.64 -208.47 178.28 -207.69 178.94 C-200.46 184.48 -192.53 185.71 -183.6 184.56 C-172.12 182.33 -162.34 178.51 -153.06 171.36 C-151 170 -151 170 -148 170 C-147.78 169.43 -147.56 168.86 -147.34 168.27 C-145.56 165.26 -143.39 163.78 -140.56 161.75 C-139.59 161.04 -138.63 160.34 -137.63 159.61 C-135 158 -135 158 -132 158 C-132 156.35 -132 154.7 -132 153 C-132.53 153.4 -133.06 153.8 -133.61 154.21 C-135.74 155.8 -137.87 157.4 -140 159 C-140.69 159.56 -141.37 160.12 -142.08 160.7 C-144 162 -144 162 -147 162 C-147.23 155.99 -146.51 151.02 -144.88 145.25 C-144.65 144.44 -144.43 143.64 -144.21 142.81 C-137.19 117.39 -137.19 117.39 -135 113 C-134.34 113 -133.68 113 -133 113 C-132.87 112.16 -132.87 112.16 -132.74 111.3 C-131.38 103.56 -128.79 96.45 -126 89.12 C-125.55 87.92 -125.1 86.71 -124.63 85.46 C-121.03 75.86 -121.03 75.86 -119 72 C-118.34 72 -117.68 72 -117 72 C-116.44 70.14 -116.44 70.14 -115.88 68.25 C-109.49 49.52 -97.12 31.74 -83 18 C-81.64 16.65 -81.64 16.65 -80.26 15.27 C-74.32 9.58 -68.33 5.66 -61 2 C-60.21 1.5 -59.42 0.99 -58.61 0.48 C-42.71 -8.51 -16.2 -8.1 0 0 Z M-40 22 C-40 22.66 -40 23.32 -40 24 C-40.7 24.08 -41.4 24.16 -42.12 24.25 C-49.65 26.21 -56.8 32.73 -60.87 39.23 C-61.74 40.73 -62.6 42.24 -63.44 43.75 C-63.88 44.52 -64.33 45.28 -64.79 46.07 C-67.15 49.81 -67.15 49.81 -68 54 C-68.66 54 -69.32 54 -70 54 C-73.92 61.62 -77.65 69.29 -81.12 77.12 C-81.44 77.83 -81.75 78.53 -82.07 79.25 C-83.06 81.5 -84.03 83.75 -85 86 C-85.39 86.87 -85.77 87.74 -86.17 88.63 C-88.67 94.39 -90.75 100.18 -92.58 106.18 C-92.8 106.89 -93.02 107.6 -93.24 108.33 C-94.59 112.71 -94.59 112.71 -95.9 117.11 C-99.96 131.07 -99.96 131.07 -105.36 134.7 C-106.89 135.5 -108.43 136.27 -110 137 C-111.4 137.84 -112.78 138.69 -114.16 139.55 C-115.46 140.33 -116.76 141.1 -118.06 141.88 C-119.07 142.48 -119.07 142.48 -120.11 143.09 C-121.74 144.06 -123.37 145.03 -125 146 C-124.34 147.32 -123.68 148.64 -123 150 C-118.97 149.38 -116.04 147.18 -112.75 144.94 C-105.77 140.32 -98.54 136.54 -90.99 132.95 C-89.04 132.02 -87.11 131.06 -85.18 130.09 C-69.86 122.5 -54.92 119.82 -37.81 119.81 C-35.94 119.79 -35.94 119.79 -34.02 119.78 C-23.78 119.76 -14.06 120.6 -4.38 124.12 C-0.77 125.52 -0.77 125.52 3 126 C3 126.66 3 127.32 3 128 C3.68 128.28 4.36 128.56 5.06 128.86 C16.02 133.82 25.6 141.42 34 150 C34.66 149.67 35.32 149.34 36 149 C36 148.01 36 147.02 36 146 C35.01 146 34.02 146 33 146 C31.29 141.97 30.06 137.9 28.88 133.69 C28.35 131.81 28.35 131.81 27.8 129.89 C27.54 128.93 27.27 127.98 27 127 C26.34 127 25.68 127 25 127 C24.89 125.92 24.78 124.83 24.66 123.71 C23.97 118.23 22.68 112.92 21.38 107.56 C21.11 106.48 20.85 105.4 20.58 104.28 C14.82 80.13 14.82 80.13 6 57 C5.34 55.48 4.68 53.96 4.02 52.43 C3.31 50.79 2.59 49.14 1.88 47.5 C1.54 46.72 1.2 45.94 0.85 45.14 C-1.49 39.72 -1.49 39.72 -5 35 C-5.66 35 -6.32 35 -7 35 C-7.24 34.42 -7.47 33.83 -7.72 33.23 C-9.27 30.52 -11.02 29.13 -13.5 27.25 C-14.29 26.64 -15.09 26.02 -15.91 25.39 C-17.86 23.82 -17.86 23.82 -20 24 C-20 23.34 -20 22.68 -20 22 C-23.38 20.98 -26.48 20.87 -30 20.88 C-31.03 20.87 -32.06 20.87 -33.12 20.87 C-35.6 20.98 -37.64 21.29 -40 22 Z M83 101 C80.84 103.57 78.9 106.23 77 109 C76.18 110.04 76.18 110.04 75.34 111.11 C73.81 112.89 73.81 112.89 74 115 C76.31 115.99 78.62 116.98 81 118 C81.39 117.25 81.78 116.5 82.18 115.73 C86.54 107.75 91.25 102.14 98 96 C96.64 93.96 96.64 93.96 95 92 C90.42 92 86.09 97.93 83 101 Z M-89 169 C-89 169.66 -89 170.32 -89 171 C-89.65 171.24 -90.3 171.48 -90.98 171.73 C-94.91 173.38 -98.62 175.37 -102.38 177.38 C-103.1 177.76 -103.83 178.15 -104.59 178.55 C-111.24 182.09 -117.78 185.79 -124.14 189.85 C-126 191 -126 191 -128.94 192.5 C-131.26 193.87 -131.26 193.87 -131.81 196.69 C-131.87 197.45 -131.94 198.21 -132 199 C-128.96 197.89 -126.21 196.58 -123.44 194.94 C-120.78 193.44 -118.95 192.47 -116 192 C-116.31 192.7 -116.62 193.4 -116.94 194.12 C-118.05 197.13 -118.56 199.85 -119 203.02 C-119.16 204.2 -119.33 205.37 -119.5 206.58 C-119.66 207.83 -119.83 209.08 -120 210.38 C-120.09 211.03 -120.17 211.68 -120.26 212.35 C-120.86 216.9 -121.43 221.45 -122 226 C-122.12 226.95 -122.25 227.9 -122.38 228.88 C-126.46 260.96 -126.98 296.77 -118 328 C-117.34 328 -116.68 328 -116 328 C-115.91 328.83 -115.82 329.66 -115.73 330.51 C-114.85 334.71 -113.26 338.08 -111.31 341.88 C-110.95 342.58 -110.59 343.29 -110.22 344.02 C-107.59 349.08 -104.81 353.74 -101 358 C-100.46 358.61 -99.91 359.22 -99.36 359.85 C-89.41 370.41 -77.07 374.45 -62.73 375.03 C-47.96 374.91 -29.49 370.33 -18.65 359.7 C-17.34 358.36 -17.34 358.36 -16 357 C-14.84 355.99 -13.66 355 -12.48 354.02 C-4.3 347.23 2.17 340.82 7.42 331.47 C9 329 9 329 10.98 327.08 C18.36 319.49 21.81 306.74 25.31 296.91 C26.04 294.9 26.8 292.92 27.57 290.93 C37.72 263.89 36.82 228.47 29 201 C28.06 198.97 27.06 196.97 26 195 C25.49 193.98 24.98 192.97 24.46 191.92 C15.74 175.11 4.28 163.52 -14.01 157.59 C-40.26 149.87 -65.17 157.13 -89 169 Z M133 189 C133 189.66 133 190.32 133 191 C136.63 191 140.26 191 144 191 C144 190.34 144 189.68 144 189 C144.66 188.67 145.32 188.34 146 188 C141.58 187.86 137.38 188.41 133 189 Z " fill="#62B7D2" transform="translate(262,70)"/>
<path d="M0 0 C2.38 0.31 2.38 0.31 5 1 C7 4 7 4 7 8 C7.66 8 8.32 8 9 8 C11 13.5 12.99 19 14.98 24.5 C15.66 26.37 16.34 28.24 17.02 30.11 C18 32.8 18.97 35.49 19.94 38.18 C20.24 39.01 20.55 39.85 20.87 40.71 C21.15 41.49 21.43 42.28 21.71 43.08 C21.96 43.77 22.21 44.45 22.47 45.16 C23 47 23 47 23 50 C23.66 50 24.32 50 25 50 C28.72 59.47 32.4 68.96 35.94 78.5 C36.24 79.32 36.55 80.14 36.87 80.98 C39 86.76 39 86.76 39 89 C39.66 89 40.32 89 41 89 C41.67 90.46 42.33 91.92 43 93.38 C43.68 94.87 43.68 94.87 44.38 96.39 C45.58 99.07 46.77 101.76 47.94 104.46 C48.28 105.24 48.62 106.02 48.97 106.82 C49.64 108.36 50.31 109.91 50.97 111.45 C52.94 115.95 55.18 120.07 57.84 124.2 C59.32 126.5 60.64 128.85 61.94 131.25 C62.44 132.18 62.94 133.1 63.46 134.05 C65.56 138.07 67.5 142.16 69.41 146.27 C71.23 149.39 73.41 151.49 76 154 C77.37 155.78 78.72 157.57 80.06 159.38 C85.82 166.48 93.72 172.05 102.87 173.79 C109.75 174.46 116.55 174.87 123 172 C122.02 171.85 122.02 171.85 121.02 171.7 C112.82 170.3 107.52 167.37 102 161 C96.67 152.63 94.48 145.23 96.57 135.3 C97.83 130.88 99.17 126.69 102 123 C102.66 123 103.32 123 104 123 C104.26 122.4 104.52 121.81 104.79 121.2 C106.07 118.88 107.3 117.58 109.31 115.88 C109.89 115.38 110.46 114.88 111.05 114.37 C116.4 110.62 121.49 110.63 127.81 110.62 C128.68 110.6 129.54 110.58 130.43 110.55 C138.69 110.51 144.99 113.3 151 119 C157.65 126.6 160.56 133.77 160.38 143.88 C160.37 144.66 160.36 145.45 160.35 146.27 C160.11 155.59 157.38 162.84 153 171 C152.34 171 151.68 171 151 171 C150.66 171.8 150.66 171.8 150.31 172.62 C144.43 183.27 133.33 189.48 122 193 C105.69 196.4 87.61 195.91 73 187 C72.67 186.34 72.34 185.68 72 185 C70.32 184.04 68.64 183.09 66.95 182.16 C57.4 176.5 49.91 168.41 44.06 159.11 C42.49 156.74 41.02 154.86 39.14 152.79 C35.26 148.36 32.57 143.33 29.75 138.19 C29.19 137.18 28.63 136.17 28.05 135.12 C26.91 133.07 25.77 131.01 24.63 128.94 C23.14 126.26 21.63 123.58 20.11 120.91 C8 99.62 8 99.62 8 94 C7.34 94 6.68 94 6 94 C5.06 91.19 4.9 89.62 4.95 86.73 C4.96 85.87 4.98 85 4.99 84.11 C5.01 83.17 5.02 82.22 5.04 81.25 C5.07 79.21 5.09 77.17 5.12 75.13 C5.13 74.06 5.14 72.99 5.15 71.88 C5.33 54.81 5.1 37.97 3.06 21 C2.97 20.23 2.88 19.46 2.79 18.67 C2.54 11.26 2.54 11.26 0 5 C-0.04 3.33 -0.04 1.67 0 0 Z " fill="#767CCA" transform="translate(329,243)"/>
<path d="M0 0 C0.66 0.33 1.32 0.66 2 1 C-2.75 5 -2.75 5 -5 5 C-4.67 6.32 -4.34 7.64 -4 9 C-3.32 8.57 -2.65 8.13 -1.95 7.69 C-1.06 7.13 -0.17 6.57 0.75 6 C1.63 5.44 2.51 4.89 3.42 4.31 C6 3 6 3 10 3 C9.85 3.7 9.71 4.4 9.56 5.12 C7.52 15.65 6.37 26.37 5 37 C4.87 37.95 4.75 38.9 4.62 39.88 C1 68.38 0.61 99.73 6 128 C6.37 130.03 6.74 132.06 7.1 134.09 C7.4 135.72 7.7 137.36 8 139 C8.66 139 9.32 139 10 139 C10.35 139.94 10.7 140.89 11.07 141.86 C16.95 157.32 24.34 172.47 40 180 C56.74 187.31 73.89 185.77 90.63 179.42 C98.23 176.22 104.22 172.91 110 167 C112.4 164.85 114.86 162.77 117.31 160.69 C117.96 160.14 118.6 159.59 119.27 159.02 C120.84 157.68 122.42 156.34 124 155 C124.33 155.66 124.66 156.32 125 157 C124.67 157.99 124.34 158.98 124 160 C124.81 159.78 125.62 159.57 126.46 159.34 C133.8 157.5 140.44 156.59 148 157 C148.99 159.48 148.99 159.48 150 162 C152.91 161.66 153.93 161.07 156 158.93 C156.66 158.06 157.32 157.2 158 156.31 C158.69 155.41 159.38 154.52 160.09 153.59 C162.16 150.78 164.14 147.95 166 145 C166.33 145.66 166.66 146.32 167 147 C163.51 154.28 158.29 161.58 151.94 166.62 C149.47 168.62 147.89 170.31 145.94 172.75 C141.2 178.34 135.08 182.03 129 186 C127.94 186.75 126.88 187.5 125.79 188.27 C123 190 123 190 120 190 C120 190.66 120 191.32 120 192 C111.21 196.69 102.7 200.51 93 203 C91.96 203.3 90.91 203.6 89.84 203.91 C70.6 208.68 49.61 207.6 31 201 C29.97 200.65 28.93 200.31 27.87 199.95 C22.61 198.04 18.32 195.57 14 192 C14 191.34 14 190.68 14 190 C13.43 189.73 12.86 189.46 12.27 189.19 C4.31 185.02 -2.17 178.53 -7 171 C-7 170.01 -7 169.02 -7 168 C-7.99 167.67 -8.98 167.34 -10 167 C-11.43 164.93 -12.66 162.94 -13.88 160.75 C-14.22 160.13 -14.57 159.51 -14.93 158.87 C-23 144.14 -23 144.14 -23 137 C-23.66 137 -24.32 137 -25 137 C-27.69 127.51 -30.19 118.06 -31.75 108.31 C-31.87 107.62 -31.98 106.92 -32.1 106.2 C-34.16 92.46 -34.16 78.53 -34.13 64.67 C-34.12 61.94 -34.13 59.2 -34.14 56.47 C-34.15 29.44 -34.15 29.44 -32 23 C-31.34 23 -30.68 23 -30 23 C-29.67 22.01 -29.34 21.02 -29 20 C-26.71 18.83 -26.71 18.83 -23.94 17.81 C-23.02 17.47 -22.1 17.12 -21.15 16.77 C-20.44 16.52 -19.73 16.26 -19 16 C-19.66 15.34 -20.32 14.68 -21 14 C-21.54 14.23 -22.09 14.46 -22.64 14.69 C-23.36 14.98 -24.08 15.27 -24.81 15.56 C-25.52 15.85 -26.23 16.14 -26.96 16.44 C-29 17 -29 17 -32 16 C-31.03 15.6 -30.06 15.2 -29.06 14.79 C-20.73 11.27 -12.82 7.41 -5.05 2.76 C-3.4 1.78 -1.7 0.88 0 0 Z " fill="#7481CB" transform="translate(136,259)"/>
<path d="M0 0 C0 0.66 0 1.32 0 2 C1.18 2.28 1.18 2.28 2.38 2.56 C13.85 7.11 22.95 15.9 28.29 26.9 C28.52 27.59 28.76 28.29 29 29 C28.67 29.66 28.34 30.32 28 31 C27.37 30.29 26.74 29.57 26.09 28.84 C15.77 17.79 2.6 10.25 -12.88 9.62 C-27.53 10.16 -40.49 15.83 -51 26 C-51.68 27.32 -52.35 28.66 -53 30 C-53.99 30.66 -54.98 31.32 -56 32 C-56.92 33.77 -57.83 35.55 -58.68 37.36 C-60.41 40.82 -62.32 44.15 -64.25 47.5 C-64.62 48.14 -64.98 48.77 -65.36 49.43 C-66.24 50.95 -67.12 52.48 -68 54 C-68.66 54 -69.32 54 -70 54 C-70.28 54.7 -70.55 55.4 -70.83 56.13 C-72.04 59.11 -73.33 62.04 -74.64 64.97 C-75.16 66.12 -75.67 67.27 -76.2 68.45 C-77.26 70.83 -78.33 73.21 -79.39 75.59 C-80.94 79.06 -82.47 82.53 -84 86 C-84.43 86.97 -84.86 87.95 -85.31 88.95 C-87.76 94.63 -89.84 100.36 -91.72 106.25 C-91.95 106.96 -92.18 107.68 -92.41 108.41 C-93.35 111.36 -94.29 114.3 -95.2 117.26 C-95.88 119.45 -96.58 121.63 -97.28 123.81 C-97.48 124.48 -97.68 125.14 -97.88 125.82 C-99.35 130.28 -101.12 132.41 -105 135 C-105.82 135.56 -106.63 136.13 -107.47 136.71 C-112.27 139.79 -117.05 142.59 -122.19 145.06 C-130.01 148.88 -135.6 153.22 -141 160 C-144 162 -144 162 -147 162 C-147.23 155.99 -146.51 151.02 -144.88 145.25 C-144.65 144.44 -144.43 143.64 -144.21 142.81 C-137.19 117.39 -137.19 117.39 -135 113 C-134.34 113 -133.68 113 -133 113 C-132.91 112.44 -132.83 111.88 -132.74 111.3 C-131.38 103.56 -128.79 96.45 -126 89.12 C-125.55 87.92 -125.1 86.71 -124.63 85.46 C-121.03 75.86 -121.03 75.86 -119 72 C-118.34 72 -117.68 72 -117 72 C-116.44 70.14 -116.44 70.14 -115.88 68.25 C-109.49 49.52 -97.12 31.74 -83 18 C-82.1 17.1 -81.19 16.2 -80.26 15.27 C-74.32 9.58 -68.33 5.66 -61 2 C-60.21 1.5 -59.42 0.99 -58.61 0.48 C-42.71 -8.51 -16.2 -8.1 0 0 Z " fill="#5DC6D2" transform="translate(262,70)"/>
<path d="M0 0 C11.56 -0.71 24.91 4.12 33.98 11.23 C37.46 14.44 40.76 17.77 43.98 21.23 C42.99 18.76 42.99 18.76 41.98 16.23 C46.53 17.75 47.78 21.12 49.98 25.23 C51.55 28.62 52.94 32.06 54.29 35.54 C54.65 36.44 55.01 37.33 55.38 38.25 C57.98 44.83 57.98 44.83 57.98 48.23 C58.64 48.23 59.3 48.23 59.98 48.23 C61.28 52.19 62.57 56.15 63.85 60.11 C64.4 61.77 64.4 61.77 64.96 63.46 C70.63 81 70.63 81 68.91 86.86 C67.06 90.08 65.14 93.24 63.12 96.36 C61.77 98.56 60.81 100.8 59.98 103.23 C59.32 103.23 58.66 103.23 57.98 103.23 C57.79 104.51 57.79 104.51 57.6 105.82 C56.97 109.27 56.05 112.46 54.98 115.79 C52.93 122.18 51.84 127.5 51.98 134.23 C53.71 131.07 54.69 127.96 55.6 124.48 C55.99 123 55.99 123 56.39 121.5 C56.58 120.75 56.78 120 56.98 119.23 C57.64 119.23 58.3 119.23 58.98 119.23 C58.87 119.82 58.76 120.4 58.64 121 C56.97 130.06 55.48 139.14 53.98 148.23 C53.32 148.23 52.66 148.23 51.98 148.23 C50.57 146.59 50.57 146.59 49.04 144.42 C47.54 142.31 46.14 140.39 44.29 138.59 C42.98 137.23 42.98 137.23 42.98 135.23 C42.43 134.98 41.88 134.73 41.32 134.48 C38.51 132.98 36.08 131.19 33.54 129.29 C30.11 126.74 26.68 124.37 22.98 122.23 C23.64 121.9 24.3 121.57 24.98 121.23 C30.47 123.41 34.77 127.02 39.29 130.73 C40.38 131.6 40.38 131.6 41.49 132.49 C42.19 133.06 42.88 133.62 43.59 134.2 C44.22 134.71 44.84 135.22 45.49 135.74 C46.98 137.23 46.98 137.23 47.98 140.23 C48.97 139.9 49.96 139.57 50.98 139.23 C51.31 138.57 51.64 137.91 51.98 137.23 C50.99 137.23 50 137.23 48.98 137.23 C45.1 131.02 42.98 125.7 42.98 118.23 C42.32 118.23 41.66 118.23 40.98 118.23 C40.67 116.93 40.67 116.93 40.35 115.6 C32.87 81.19 32.87 81.19 20.98 48.23 C20.38 46.78 19.79 45.33 19.21 43.88 C13.96 31.1 8.15 22.31 -4.02 15.23 C-4.02 14.57 -4.02 13.91 -4.02 13.23 C-10.62 13.23 -17.22 13.23 -24.02 13.23 C-24.02 13.89 -24.02 14.55 -24.02 15.23 C-24.66 15.53 -25.3 15.84 -25.96 16.15 C-31.39 18.78 -36.23 21.58 -41.02 25.23 C-40.36 23.91 -39.7 22.59 -39.02 21.23 C-38.36 21.23 -37.7 21.23 -37.02 21.23 C-36.93 20.64 -36.84 20.05 -36.74 19.44 C-34.67 13.06 -26.13 8.7 -20.61 5.52 C-14.1 2.28 -7.17 0.82 0 0 Z " fill="#7573C4" transform="translate(246.0234375,78.76953125)"/>
<path d="M0 0 C0.33 0 0.66 0 1 0 C1.1 1.28 1.2 2.57 1.3 3.89 C3.47 30.4 8.97 58.45 24 81 C25.49 81.5 25.49 81.5 27 82 C27.5 80.51 27.5 80.51 28 79 C31.68 77.03 34.87 76.73 39 76.75 C40.52 76.74 40.52 76.74 42.06 76.73 C45.07 77.01 47.27 77.74 50 79 C49.53 78 49.06 77 48.57 75.96 C47.95 74.62 47.32 73.28 46.69 71.94 C46.38 71.28 46.07 70.62 45.75 69.95 C44.83 67.97 43.91 65.99 43 64 C42.7 63.35 42.4 62.7 42.09 62.03 C39.96 57.29 39.96 57.29 40.31 54.56 C40.54 54.05 40.77 53.53 41 53 C41 53.99 41 54.98 41 56 C41.66 56 42.32 56 43 56 C43.35 56.94 43.7 57.89 44.07 58.86 C49.95 74.32 57.34 89.47 73 97 C89.74 104.31 106.89 102.77 123.63 96.42 C131.23 93.22 137.22 89.91 143 84 C145.4 81.85 147.86 79.77 150.31 77.69 C150.96 77.14 151.6 76.59 152.27 76.02 C153.84 74.68 155.42 73.34 157 72 C157.33 72.66 157.66 73.32 158 74 C157.67 74.99 157.34 75.98 157 77 C157.81 76.78 158.62 76.57 159.46 76.34 C166.8 74.5 173.44 73.59 181 74 C181.66 75.65 182.32 77.3 183 79 C185.91 78.66 186.93 78.07 189 75.93 C189.66 75.06 190.32 74.2 191 73.31 C191.69 72.41 192.38 71.52 193.09 70.59 C195.16 67.78 197.14 64.95 199 62 C199.33 62.66 199.66 63.32 200 64 C196.51 71.28 191.29 78.58 184.94 83.62 C182.47 85.62 180.89 87.31 178.94 89.75 C174.2 95.34 168.08 99.03 162 103 C160.94 103.75 159.88 104.5 158.79 105.27 C156 107 156 107 153 107 C153 107.66 153 108.32 153 109 C144.21 113.69 135.7 117.51 126 120 C124.96 120.3 123.91 120.6 122.84 120.91 C103.6 125.68 82.61 124.6 64 118 C62.97 117.65 61.93 117.31 60.87 116.95 C55.61 115.04 51.32 112.57 47 109 C47 108.34 47 107.68 47 107 C46.43 106.73 45.86 106.46 45.27 106.19 C37.31 102.02 30.83 95.53 26 88 C26 87.01 26 86.02 26 85 C24.52 84.5 24.52 84.5 23 84 C21.57 81.93 20.34 79.94 19.12 77.75 C18.78 77.13 18.43 76.51 18.07 75.87 C10 61.14 10 61.14 10 54 C9.34 54 8.68 54 8 54 C2.9 36.01 -0.7 18.77 0 0 Z " fill="#8C52C9" transform="translate(103,342)"/>
<path d="M0 0 C9.46 5.69 14.02 12.55 17.08 22.98 C19.56 34.98 15.71 46.05 9.47 56.18 C6.67 60.2 3.65 64.31 -0.5 67 C-2.74 66.7 -2.74 66.7 -4.5 66 C-4.83 64.68 -5.16 63.36 -5.5 62 C-4.84 61.67 -4.18 61.34 -3.5 61 C-3.17 60.01 -2.84 59.02 -2.5 58 C-1.76 58.21 -1.01 58.41 -0.25 58.62 C2.82 59.04 3.93 58.62 6.5 57 C6.5 56.01 6.5 55.02 6.5 54 C5.51 54.5 5.51 54.5 4.5 55 C2.3 55.23 0.09 55.41 -2.12 55.56 C-3.31 55.65 -4.5 55.73 -5.73 55.82 C-6.64 55.88 -7.56 55.94 -8.5 56 C-8.17 56.99 -7.84 57.98 -7.5 59 C-8.5 60 -8.5 60 -12.06 60.06 C-13.2 60.04 -14.33 60.02 -15.5 60 C-14.84 58.68 -14.18 57.36 -13.5 56 C-14.13 56.05 -14.76 56.09 -15.41 56.14 C-21.94 56.42 -26 55.44 -31.5 52 C-32.28 51.56 -33.05 51.13 -33.86 50.68 C-40.16 46.91 -43.01 43.04 -45.08 36.05 C-46.89 27.26 -44.86 19.04 -41.12 11.06 C-39.16 8.56 -37.28 7.55 -34.5 6 C-32.5 4.5 -30.53 2.96 -28.56 1.4 C-20.79 -3.88 -8.46 -3.91 0 0 Z " fill="#836DD1" transform="translate(470.5,357)"/>
<path d="M0 0 C1.45 1.19 2.89 2.4 4.31 3.62 C4.92 4.12 5.52 4.62 6.15 5.14 C14.47 12.61 21.36 25.08 22.61 36.29 C22.75 39.16 22.78 42 22.75 44.88 C22.74 45.89 22.73 46.9 22.72 47.95 C22.4 62.39 17.6 75.25 7.56 85.94 C-3.12 95.86 -14.99 101.4 -29.56 101.19 C-30.62 101.18 -31.68 101.17 -32.77 101.16 C-40.66 100.95 -46.86 99.73 -53.69 95.62 C-54.65 95.11 -55.62 94.59 -56.62 94.06 C-61.65 91.27 -61.65 91.27 -63.69 89.62 C-63.69 88.63 -63.69 87.64 -63.69 86.62 C-62.72 87.12 -61.76 87.61 -60.77 88.12 C-59.49 88.77 -58.21 89.42 -56.94 90.06 C-55.99 90.55 -55.99 90.55 -55.02 91.05 C-44.87 96.17 -32.7 96.12 -21.81 93.06 C-8.13 88.21 1.82 79.53 8.31 66.62 C12.99 55.31 14.14 42.38 10.31 30.62 C6.42 21.4 6.42 21.4 0.31 13.62 C0.31 12.97 0.31 12.31 0.31 11.62 C-0.35 11.62 -1.01 11.62 -1.69 11.62 C-1.69 10.97 -1.69 10.31 -1.69 9.62 C-2.2 9.4 -2.72 9.17 -3.25 8.94 C-5.69 7.62 -5.69 7.62 -8.56 5.31 C-17.5 -1 -26.8 -2.83 -37.5 -2.88 C-38.37 -2.88 -39.24 -2.89 -40.14 -2.89 C-52.66 -2.65 -63.6 3.06 -72.74 11.46 C-79.79 19.3 -83.93 28.55 -86.69 38.62 C-87.02 38.62 -87.35 38.62 -87.69 38.62 C-87.36 36.31 -87.03 34 -86.69 31.62 C-91.64 32.12 -91.64 32.12 -96.69 32.62 C-96.08 28.5 -94.65 25.29 -92.69 21.62 C-92.36 22.28 -92.03 22.94 -91.69 23.62 C-89.71 24.35 -87.71 25.02 -85.69 25.62 C-85.21 24.86 -84.74 24.1 -84.25 23.32 C-79.7 16.2 -74.94 10.36 -68.69 4.62 C-69.35 3.63 -70.01 2.65 -70.69 1.62 C-74.98 3.01 -77.39 5.01 -80.5 8.25 C-81.29 9.07 -82.08 9.88 -82.89 10.73 C-83.49 11.35 -84.08 11.98 -84.69 12.62 C-84.69 9.62 -84.69 9.62 -83.29 7.83 C-60.32 -14.87 -26.75 -20.09 0 0 Z M-32.69 97.62 C-32.69 98.28 -32.69 98.94 -32.69 99.62 C-29.06 99.62 -25.43 99.62 -21.69 99.62 C-21.69 98.97 -21.69 98.31 -21.69 97.62 C-21.03 97.3 -20.37 96.97 -19.69 96.62 C-24.11 96.49 -28.31 97.03 -32.69 97.62 Z " fill="#090B0A" transform="translate(427.6875,161.375)"/>
<path d="M0 0 C0.86 -0.02 1.73 -0.05 2.62 -0.07 C10.88 -0.11 17.17 2.68 23.19 8.38 C29.84 15.98 32.75 23.15 32.56 33.25 C32.55 34.43 32.55 34.43 32.54 35.64 C32.3 44.97 29.57 52.22 25.19 60.38 C24.53 60.38 23.87 60.38 23.19 60.38 C22.96 60.91 22.73 61.45 22.5 62 C16.61 72.65 5.52 78.85 -5.81 82.38 C-22.12 85.78 -40.2 85.28 -54.81 76.38 C-55.31 75.38 -55.31 75.38 -55.81 74.38 C-57.49 73.42 -59.17 72.47 -60.86 71.53 C-71.3 65.35 -80.04 55.98 -85.81 45.38 C-85.81 44.38 -85.81 43.39 -85.81 42.38 C-83.81 44.66 -81.81 46.95 -79.81 49.25 C-79.24 49.9 -78.67 50.55 -78.08 51.22 C-77.54 51.85 -77 52.47 -76.44 53.12 C-75.93 53.69 -75.43 54.27 -74.91 54.86 C-73.81 56.38 -73.81 56.38 -73.81 58.38 C-73.15 58.38 -72.49 58.38 -71.81 58.38 C-70.19 59.75 -70.19 59.75 -68.81 61.38 C-68.81 62.03 -68.81 62.69 -68.81 63.38 C-65.46 64.14 -65.46 64.14 -61.81 64.38 C-60.78 63.4 -59.79 62.4 -58.81 61.38 C-54.05 59.25 -48.98 58.04 -43.81 57.38 C-43.48 56.38 -43.15 55.39 -42.81 54.38 C-41.65 55.1 -41.65 55.1 -40.47 55.84 C-30.21 62.06 -22.86 64.25 -10.81 63.38 C-7.26 62.53 -7.26 62.53 -4.81 61.38 C-5.46 61.28 -6.12 61.18 -6.79 61.08 C-12.41 60.12 -16.42 59.09 -20.81 55.38 C-21.14 54.38 -21.47 53.39 -21.81 52.38 C-19.85 53.34 -17.92 54.31 -16.02 55.41 C-10.69 58.39 -5.87 59.13 0.19 59.38 C-0.14 60.37 -0.47 61.36 -0.81 62.38 C1.17 62.38 3.15 62.38 5.19 62.38 C5.19 61.38 5.19 60.39 5.19 59.38 C8.02 57.96 10.66 58.03 13.81 57.81 C15 57.73 16.19 57.64 17.41 57.56 C18.33 57.5 19.24 57.44 20.19 57.38 C20.19 58.37 20.19 59.36 20.19 60.38 C17.69 62.06 17.69 62.06 15.19 63.38 C15.19 62.72 15.19 62.06 15.19 61.38 C13.87 61.38 12.55 61.38 11.19 61.38 C10.86 62.69 10.53 64.01 10.19 65.38 C9.53 65.38 8.87 65.38 8.19 65.38 C8.85 66.69 9.51 68.01 10.19 69.38 C15.95 68.53 18.85 63.76 22.19 59.38 C29 48.95 32.11 38.09 29.65 25.66 C27.24 16.87 22.65 10.62 15.19 5.38 C7.19 1.28 -2.25 0.64 -10.86 3.32 C-15.74 5.67 -19.84 8.72 -23.81 12.38 C-22.47 9.32 -21.05 7.41 -18.5 5.25 C-17.93 4.75 -17.35 4.25 -16.76 3.74 C-11.42 -0.01 -6.32 0.01 0 0 Z " fill="#8750C2" transform="translate(456.8125,353.625)"/>
<path d="M0 0 C5.08 3.07 8.04 7.46 10 13 C10.97 19.81 10.87 26.34 7.26 32.36 C3.64 37.08 -1.19 40.59 -7 42 C-13.88 42.86 -19.55 42.77 -25.25 38.55 C-31.77 32.77 -34.43 28.01 -35.44 19.19 C-35.27 13.28 -32.4 7.77 -28.58 3.36 C-20.03 -4.27 -9.93 -5.02 0 0 Z " fill="#080A08" transform="translate(405,188)"/>
<path d="M0 0 C11.57 -0.71 24.91 4.12 33.98 11.23 C39.64 16.27 45.04 21.08 47.98 28.23 C47.66 31.11 47.66 31.11 46.98 33.23 C43.59 34.27 40.5 34.23 36.98 34.23 C36.65 34.56 36.32 34.89 35.98 35.23 C33.31 35.37 30.65 35.27 27.98 35.23 C27.98 34.57 27.98 33.91 27.98 33.23 C24.35 32.57 20.72 31.91 16.98 31.23 C17.68 33.09 18.39 34.94 19.1 36.79 C19.55 37.97 20 39.15 20.47 40.37 C21.48 42.98 22.53 45.57 23.61 48.15 C24.01 49.13 24.01 49.13 24.43 50.12 C25.19 51.96 25.97 53.79 26.74 55.62 C28.1 59.6 28.59 63.06 28.98 67.23 C26.83 64.01 25.64 60.78 24.35 57.17 C15.31 32.42 15.31 32.42 -4.02 15.23 C-4.02 14.57 -4.02 13.91 -4.02 13.23 C-10.62 13.23 -17.22 13.23 -24.02 13.23 C-24.02 13.89 -24.02 14.55 -24.02 15.23 C-24.66 15.53 -25.3 15.84 -25.96 16.15 C-31.39 18.78 -36.23 21.58 -41.02 25.23 C-40.36 23.91 -39.7 22.59 -39.02 21.23 C-38.36 21.23 -37.7 21.23 -37.02 21.23 C-36.93 20.64 -36.84 20.05 -36.74 19.44 C-34.67 13.06 -26.13 8.7 -20.61 5.52 C-14.1 2.28 -7.17 0.82 0 0 Z " fill="#8149BB" transform="translate(246.0234375,78.76953125)"/>
<path d="M0 0 C0 0.66 0 1.32 0 2 C1.18 2.28 1.18 2.28 2.38 2.56 C10.74 5.88 18.35 12.01 24 19 C25.5 22.5 25.5 22.5 26 25 C21 20 21 20 18.69 17.62 C17.8 16.76 16.91 15.89 16 15 C15.47 14.46 14.94 13.93 14.4 13.38 C2.46 1.99 -13.04 -2.59 -29.19 -2.5 C-30.38 -2.49 -31.58 -2.49 -32.81 -2.48 C-48.63 -2.15 -61.52 3.23 -73.74 13.25 C-76 15 -76 15 -78 15 C-78 15.66 -78 16.32 -78 17 C-79.05 17.92 -80.14 18.78 -81.25 19.62 C-106.09 40.82 -118.9 77.34 -130 107 C-131.51 103.1 -130.42 100.65 -128.98 96.84 C-128.54 95.66 -128.09 94.47 -127.63 93.25 C-127.15 92 -126.67 90.75 -126.19 89.5 C-125.72 88.25 -125.25 87 -124.78 85.75 C-121.05 75.91 -121.05 75.91 -119 72 C-118.34 72 -117.68 72 -117 72 C-116.44 70.14 -116.44 70.14 -115.88 68.25 C-109.49 49.52 -97.12 31.74 -83 18 C-82.1 17.1 -81.19 16.2 -80.26 15.27 C-74.32 9.58 -68.33 5.66 -61 2 C-60.21 1.5 -59.42 0.99 -58.61 0.48 C-42.71 -8.51 -16.2 -8.1 0 0 Z " fill="#0C1312" transform="translate(262,70)"/>
<path d="M0 0 C0.86 -0.02 1.73 -0.05 2.62 -0.07 C10.88 -0.11 17.17 2.68 23.19 8.38 C29.84 15.98 32.75 23.15 32.56 33.25 C32.55 34.43 32.55 34.43 32.54 35.64 C32.3 44.97 29.57 52.22 25.19 60.38 C24.53 60.38 23.87 60.38 23.19 60.38 C22.96 60.91 22.73 61.45 22.5 62 C16.61 72.65 5.52 78.85 -5.81 82.38 C-22.04 85.76 -37.78 84.67 -52.87 77.66 C-54.81 76.38 -54.81 76.38 -55.81 73.38 C-52.37 74.1 -49.34 75.4 -46.12 76.81 C-29.86 83.6 -14.25 82.33 2.07 76.31 C14.31 70.79 23.19 60.38 28.06 48 C31.2 37.89 31.22 28.25 27.19 18.38 C23.05 10.57 16.44 5.31 8.19 2.38 C-2.58 1.06 -10.97 2.27 -19.75 8.82 C-21.15 9.95 -22.49 11.16 -23.81 12.38 C-22.47 9.32 -21.05 7.41 -18.5 5.25 C-17.64 4.5 -17.64 4.5 -16.76 3.74 C-11.42 -0.01 -6.32 0.01 0 0 Z " fill="#0F0E12" transform="translate(456.8125,353.625)"/>
<path d="M0 0 C0.99 0.5 0.99 0.5 2 1 C-4.86 9.74 -12.67 15.18 -22 21 C-22.99 21.66 -23.98 22.32 -25 23 C-25.99 23 -26.98 23 -28 23 C-28 23.66 -28 24.32 -28 25 C-36.79 29.69 -45.3 33.51 -55 36 C-56.04 36.3 -57.09 36.6 -58.16 36.91 C-77.4 41.68 -98.39 40.6 -117 34 C-118.03 33.65 -119.07 33.31 -120.13 32.95 C-125.39 31.04 -129.68 28.57 -134 25 C-134 24.34 -134 23.68 -134 23 C-134.64 22.71 -135.28 22.42 -135.94 22.12 C-138 21 -138 21 -139 19 C-134.21 21.25 -129.85 24.2 -125.39 27.03 C-119.65 30.37 -113.9 32.44 -107.5 34.12 C-106.25 34.46 -105 34.79 -103.72 35.13 C-75.19 41.79 -46.45 33.27 -22.06 18.32 C-15.9 14.36 -9.88 9.96 -4.77 4.71 C-3 3 -3 3 -1 3 C-0.67 2.01 -0.34 1.02 0 0 Z " fill="#0E0B10" transform="translate(284,426)"/>
<path d="M0 0 C1.98 0 3.96 0 6 0 C6 3.63 6 7.26 6 11 C9.3 11 12.6 11 16 11 C16 12.65 16 14.3 16 16 C12.7 16 9.4 16 6 16 C6 19.63 6 23.26 6 27 C4.02 27 2.04 27 0 27 C-0.33 23.7 -0.66 20.4 -1 17 C-4.3 16.67 -7.6 16.34 -11 16 C-11 14.35 -11 12.7 -11 11 C-7.37 11 -3.74 11 0 11 C0 7.37 0 3.74 0 0 Z " fill="#5ABED0" transform="translate(390,194)"/>
<path d="M0 0 C6.8 4.96 12.9 10.57 14.38 19.2 C14.53 21.48 14.55 23.71 14.5 26 C14.52 26.76 14.53 27.51 14.55 28.29 C14.5 34.87 12.59 40.06 8.22 45.02 C7.65 45.47 7.08 45.92 6.5 46.38 C5.93 46.84 5.37 47.3 4.78 47.77 C0.94 50.42 -1.74 51.28 -6.44 51.25 C-7.36 51.26 -8.29 51.26 -9.25 51.27 C-13.11 50.89 -15.87 50 -18.8 47.41 C-22.53 42.7 -23.65 39.29 -23.5 33.3 C-22.91 30.58 -21.8 29.09 -20 27 C-19.01 27.33 -18.02 27.66 -17 28 C-17.99 28.77 -17.99 28.77 -19 29.56 C-21.3 31.93 -21.3 31.93 -21.44 35.44 C-20.84 40.32 -19.16 42.61 -16.06 46.31 C-11.19 49 -6.43 48.7 -1 48 C4.09 46.45 7.13 43.05 10.05 38.78 C13.39 32.5 13.21 23.18 11.28 16.52 C10.33 14.53 9.28 12.79 8 11 C7.26 9.93 6.52 8.85 5.75 7.75 C-0.33 1.67 -7.21 -0.14 -15.62 -0.31 C-22.28 -0.28 -27.09 1.11 -33 4 C-33.99 4.33 -34.98 4.66 -36 5 C-35 2 -35 2 -32.86 0.87 C-31.98 0.54 -31.09 0.21 -30.19 -0.12 C-29.31 -0.46 -28.44 -0.79 -27.54 -1.13 C-18.75 -4.13 -8.32 -4.61 0 0 Z " fill="#0E1616" transform="translate(78,193)"/>
<path d="M0 0 C0.66 0.33 1.32 0.66 2 1 C-2.75 5 -2.75 5 -5 5 C-4.67 6.32 -4.34 7.64 -4 9 C-3.32 8.57 -2.65 8.13 -1.95 7.69 C-1.06 7.13 -0.17 6.57 0.75 6 C1.63 5.44 2.51 4.89 3.42 4.31 C6 3 6 3 10 3 C9.67 4.65 9.34 6.3 9 8 C8.5 6.51 8.5 6.51 8 5 C7.08 5.5 6.16 5.99 5.21 6.5 C-20.05 20.08 -20.05 20.08 -30 23 C-29 20 -29 20 -26.71 18.83 C-25.8 18.5 -24.88 18.16 -23.94 17.81 C-23.02 17.47 -22.1 17.12 -21.15 16.77 C-20.44 16.52 -19.73 16.26 -19 16 C-19.66 15.34 -20.32 14.68 -21 14 C-21.54 14.23 -22.09 14.46 -22.64 14.69 C-23.36 14.98 -24.08 15.27 -24.81 15.56 C-25.52 15.85 -26.23 16.14 -26.96 16.44 C-29 17 -29 17 -32 16 C-31.03 15.6 -30.06 15.2 -29.06 14.79 C-20.73 11.27 -12.82 7.41 -5.05 2.76 C-3.4 1.78 -1.7 0.88 0 0 Z " fill="#0B0D0D" transform="translate(136,259)"/>
<path d="M0 0 C0.99 0.33 1.98 0.66 3 1 C2.41 1.29 1.83 1.58 1.22 1.88 C-18.29 11.6 -36.02 23.1 -53.49 36.09 C-54.19 36.6 -54.89 37.12 -55.61 37.65 C-56.22 38.1 -56.83 38.56 -57.45 39.03 C-59 40 -59 40 -61 40 C-59.47 35.99 -57 34.21 -53.56 31.75 C-52.59 31.04 -51.63 30.34 -50.63 29.61 C-48 28 -48 28 -45 28 C-45 26.35 -45 24.7 -45 23 C-46.65 23.66 -48.3 24.32 -50 25 C-46.32 20.99 -42.81 18.55 -38 16 C-37.34 16.99 -36.68 17.98 -36 19 C-31.97 18.38 -29.04 16.18 -25.75 13.94 C-18.17 8.9 -10.2 4.92 -2 1 C-1.34 0.67 -0.68 0.34 0 0 Z " fill="#0C1211" transform="translate(175,200)"/>
<path d="M0 0 C0.33 0.99 0.66 1.98 1 3 C1.66 3 2.32 3 3 3 C3.35 3.94 3.7 4.89 4.07 5.86 C9.95 21.32 17.34 36.47 33 44 C47.43 50.3 63.31 50.5 78.12 45.31 C78.81 45.04 79.49 44.77 80.2 44.49 C82 44 82 44 85 45 C71.93 51.65 55.75 53.29 41.42 49.81 C31.6 46.53 24.23 41.31 17 34 C16.17 33.22 16.17 33.22 15.33 32.43 C9.59 26.54 6.41 18.38 3 11 C2.7 10.37 2.4 9.73 2.1 9.08 C0.57 5.73 0 3.76 0 0 Z " fill="#120D15" transform="translate(143,395)"/>
<path d="M0 0 C0.66 0 1.32 0 2 0 C1.89 0.59 1.78 1.17 1.67 1.77 C-0 10.83 -1.5 19.91 -3 29 C-3.66 29 -4.32 29 -5 29 C-6.4 27.36 -6.4 27.36 -7.94 25.19 C-9.44 23.08 -10.83 21.16 -12.69 19.36 C-14 18 -14 18 -14 16 C-14.82 15.63 -14.82 15.63 -15.66 15.25 C-18.46 13.75 -20.89 11.96 -23.44 10.06 C-26.87 7.51 -30.3 5.14 -34 3 C-33.34 2.67 -32.68 2.34 -32 2 C-26.5 4.18 -22.21 7.79 -17.69 11.5 C-16.96 12.08 -16.23 12.66 -15.48 13.26 C-14.79 13.83 -14.1 14.39 -13.39 14.97 C-12.76 15.48 -12.13 15.99 -11.49 16.51 C-10 18 -10 18 -9 21 C-8.01 20.67 -7.02 20.34 -6 20 C-5.67 19.34 -5.34 18.68 -5 18 C-5.99 18 -6.98 18 -8 18 C-8.66 16.68 -9.32 15.36 -10 14 C-9.34 14 -8.68 14 -8 14 C-7.95 13.37 -7.9 12.75 -7.85 12.1 C-7.78 11.28 -7.7 10.47 -7.62 9.62 C-7.56 8.81 -7.49 8 -7.41 7.16 C-7 5 -7 5 -5 3 C-5 6.96 -5 10.92 -5 15 C-3.32 11.63 -2.32 8.85 -1.38 5.25 C-1.11 4.27 -0.85 3.28 -0.59 2.27 C-0.39 1.52 -0.2 0.77 0 0 Z " fill="#0B0F0E" transform="translate(303,198)"/>
<path d="M0 0 C2.79 1.28 4.8 2.62 7 4.75 C18.42 14.67 33.36 17.73 48.14 17.34 C60.1 16.29 69.32 12.96 79.11 6.02 C81.38 4.43 83.49 3.14 86 2 C83.61 7.1 80.33 9.04 75.56 11.62 C74.84 12.02 74.12 12.41 73.37 12.81 C58.85 20.45 39.62 22 23.8 17.1 C14.43 13.42 5.68 9.76 0 1 C0 0.67 0 0.34 0 0 Z " fill="#0C1111" transform="translate(356,257)"/>
<path d="M0 0 C0.33 0 0.66 0 1 0 C1.64 44.49 1.64 44.49 -2 62 C-2.14 62.72 -2.29 63.44 -2.44 64.18 C-4.04 71.91 -6.34 79.34 -9.06 86.75 C-9.31 87.42 -9.55 88.09 -9.81 88.77 C-11.14 92.25 -12.58 95.16 -15 98 C-14.38 93.2 -12.96 88.94 -11.25 84.44 C-1.29 56.94 -0.7 28.9 0 0 Z " fill="#101216" transform="translate(329,287)"/>
<path d="M0 0 C0.99 0.33 1.98 0.66 3 1 C-2.81 5.57 -8.91 9.14 -15.56 12.31 C-16.26 12.65 -16.95 12.99 -17.67 13.33 C-28.05 18.15 -39.03 19.84 -50 16 C-55.28 13.87 -59.27 11.43 -63 7 C-63 6.34 -63 5.68 -63 5 C-60.56 6.08 -58.75 7.21 -56.69 8.94 C-49.46 14.48 -41.53 15.71 -32.6 14.56 C-21.09 12.33 -11.31 8.52 -2.06 1.26 C-1.38 0.84 -0.7 0.43 0 0 Z " fill="#0A0E0D" transform="translate(111,240)"/>
<path d="M0 0 C1.45 0 1.45 0 2.94 0 C3.92 0 4.91 0 5.92 0 C15.01 0.14 24.56 1.25 32.81 5.38 C32.81 6.04 32.81 6.7 32.81 7.38 C33.6 7.56 34.38 7.75 35.19 7.94 C43.55 11.26 51.17 17.39 56.81 24.38 C58.31 27.88 58.31 27.88 58.81 30.38 C53.81 25.38 53.81 25.38 51.5 23 C50.61 22.14 49.73 21.27 48.81 20.38 C48.28 19.84 47.75 19.31 47.21 18.75 C35.04 7.15 19.56 3.01 3.19 2.69 C1.99 2.66 0.8 2.62 -0.43 2.59 C-3.35 2.51 -6.27 2.44 -9.19 2.38 C-6.31 -0.5 -3.95 0.06 0 0 Z " fill="#111D1D" transform="translate(229.1884765625,64.620849609375)"/>
<path d="M0 0 C0.33 0 0.66 0 1 0 C1.1 1.28 1.2 2.57 1.3 3.89 C3.23 27.46 8.21 48.93 18.19 70.44 C18.51 71.13 18.83 71.82 19.16 72.53 C21.05 76.45 23.26 79.65 26 83 C26 83.66 26 84.32 26 85 C22.01 83.67 21.06 81.24 19.12 77.75 C18.78 77.13 18.43 76.51 18.07 75.87 C10 61.14 10 61.14 10 54 C9.34 54 8.68 54 8 54 C2.9 36.01 -0.7 18.77 0 0 Z " fill="#15131C" transform="translate(103,342)"/>
<path d="M0 0 C1.23 -0.01 2.47 -0.02 3.74 -0.02 C13.87 -0 23.58 0.91 33.19 4.31 C34.66 4.82 34.66 4.82 36.16 5.35 C38.56 6.25 38.56 6.25 40.56 7.25 C40.56 7.91 40.56 8.57 40.56 9.25 C36.88 8.6 33.52 7.58 30 6.31 C7.71 -1.09 -16.74 0.75 -38.45 9.16 C-41.12 10.14 -43.64 10.78 -46.44 11.25 C-42.56 7.74 -38.76 6.07 -33.81 4.62 C-33.16 4.42 -32.52 4.22 -31.85 4.01 C-21.24 0.79 -11.06 -0.07 0 0 Z " fill="#0C1210" transform="translate(224.4375,188.75)"/>
<path d="M0 0 C0.5 0.99 0.5 0.99 1 2 C-1.02 2.48 -3.04 2.96 -5.06 3.44 C-6.75 3.84 -6.75 3.84 -8.47 4.25 C-15.05 5.65 -21.3 6.16 -28 6.12 C-28.77 6.13 -29.54 6.13 -30.33 6.14 C-34.99 6.13 -39.4 5.77 -44 5 C-43.67 4.34 -43.34 3.68 -43 3 C-35.55 1.32 -27.41 1.93 -19.81 2.12 C-12.94 2.23 -6.82 -0.33 0 0 Z " fill="#7F43B8" transform="translate(228,458)"/>
<path d="M0 0 C2.38 0.31 2.38 0.31 5 1 C7 4 7 4 6.62 6.19 C6.42 6.79 6.21 7.38 6 8 C5.67 7.01 5.34 6.02 5 5 C4.9 10.97 4.99 16.78 5.71 22.71 C7.94 41.35 7.17 60.26 7 79 C6.67 79 6.34 79 6 79 C5.99 78.07 5.98 77.14 5.97 76.17 C5.76 57.94 5.08 39.88 3 21.75 C2.91 20.96 2.82 20.17 2.73 19.35 C2.55 11.57 2.55 11.57 0 5 C-0.04 3.33 -0.04 1.67 0 0 Z " fill="#0E1314" transform="translate(329,243)"/>
<path d="M0 0 C6.14 4.48 11.83 9.49 14 17 C14.25 20.5 14.25 20.5 14 23 C13.01 21.03 12.03 19.07 11.11 17.07 C7.4 9.22 3.18 4.17 -5 1 C-14.53 -2.05 -24.26 -0.28 -33 4 C-33.99 4.33 -34.98 4.66 -36 5 C-35 2 -35 2 -32.86 0.87 C-31.98 0.54 -31.09 0.21 -30.19 -0.12 C-29.31 -0.46 -28.44 -0.79 -27.54 -1.13 C-18.75 -4.13 -8.32 -4.61 0 0 Z " fill="#0A0E0D" transform="translate(78,193)"/>
<path d="M0 0 C0.62 0.66 1.24 1.32 1.88 2 C15.04 15.09 27.77 20.11 46.2 20.2 C51.46 20.18 56.73 20.12 62 20 C53.5 25.05 37.14 23.23 27.71 21.28 C16.58 18 5.95 12.28 0 2 C0 1.34 0 0.68 0 0 Z " fill="#101518" transform="translate(34,258)"/>
<path d="M0 0 C0.66 0 1.32 0 2 0 C1.41 3.98 0.56 7.67 -0.71 11.49 C-1.21 13.03 -1.21 13.03 -1.73 14.61 C-2.09 15.69 -2.44 16.76 -2.81 17.88 C-5.96 27.51 -8.76 37.11 -11 47 C-8.69 45.35 -6.38 43.7 -4 42 C-3.34 42.33 -2.68 42.66 -2 43 C-3.1 44.01 -4.2 45.01 -5.31 46 C-5.93 46.56 -6.54 47.11 -7.18 47.69 C-9 49 -9 49 -12 49 C-12.23 42.99 -11.51 38.02 -9.88 32.25 C-9.65 31.44 -9.43 30.64 -9.21 29.81 C-2.19 4.39 -2.19 4.39 0 0 Z " fill="#0C1111" transform="translate(127,183)"/>
<path d="M0 0 C0 3.49 -0.92 5.2 -2.44 8.31 C-4.28 12.29 -5.72 15.59 -6 20 C-6.05 20.79 -6.1 21.57 -6.15 22.38 C-6.52 32.6 -4.29 41.31 1 50 C0.67 50.66 0.34 51.32 0 52 C-2.68 49.65 -3.85 47.44 -5.12 44.12 C-5.46 43.28 -5.79 42.44 -6.13 41.57 C-9.76 30.81 -9.65 16.39 -5 6 C-2.6 1.3 -2.6 1.3 0 0 Z " fill="#0A0E0C" transform="translate(33,206)"/>
<path d="M0 0 C0.96 0 1.92 0.01 2.91 0.01 C9.44 0.09 15.72 0.55 22.06 2.25 C22.06 2.91 22.06 3.57 22.06 4.25 C23.05 4.58 24.04 4.91 25.06 5.25 C23.62 5.11 22.19 4.96 20.75 4.81 C19.95 4.73 19.15 4.65 18.32 4.57 C16.06 4.25 16.06 4.25 13.06 3.25 C11.26 3.16 9.46 3.12 7.65 3.12 C6.04 3.12 6.04 3.12 4.4 3.11 C2.72 3.12 2.72 3.12 1 3.12 C-0.64 3.12 -0.64 3.12 -2.32 3.11 C-8.92 3.12 -15.39 3.44 -21.94 4.25 C-21.61 3.59 -21.28 2.93 -20.94 2.25 C-14.17 0.03 -7.05 -0.07 0 0 Z " fill="#0B1110" transform="translate(387.9375,130.75)"/>
<path d="M0 0 C3.44 0.73 6.47 2.02 9.69 3.44 C20.73 8.04 31.16 8.51 43 9 C43 9.33 43 9.66 43 10 C42.01 10.17 41.02 10.33 40 10.5 C39.44 10.59 38.89 10.69 38.31 10.78 C26.12 11.93 11.41 9.87 1 3 C0.67 2.01 0.34 1.02 0 0 Z " fill="#0A0809" transform="translate(401,427)"/>
<path d="M0 0 C3.22 3.12 6.29 6.36 9.31 9.69 C10.01 10.45 10.71 11.22 11.43 12.01 C13 14 13 14 13 16 C13.66 16 14.32 16 15 16 C16.62 17.38 16.62 17.38 18 19 C18 19.66 18 20.32 18 21 C18.84 21.38 18.84 21.38 19.7 21.77 C22.29 23.16 24.45 24.8 26.75 26.62 C27.55 27.26 28.35 27.89 29.17 28.54 C29.78 29.02 30.38 29.5 31 30 C30.01 30.33 29.02 30.66 28 31 C25.55 29.34 25.55 29.34 22.75 26.94 C21.77 26.1 20.79 25.25 19.77 24.39 C18.86 23.6 17.94 22.81 17 22 C16.35 21.51 15.71 21.02 15.04 20.52 C8.74 15.71 2.52 7.56 0 0 Z " fill="#110D15" transform="translate(370,396)"/>
<path d="M0 0 C0.33 0 0.66 0 1 0 C1 2.64 1 5.28 1 8 C2.32 8.66 3.64 9.32 5 10 C5 10.66 5 11.32 5 12 C2.69 12 0.38 12 -2 12 C-2.37 18.57 -1.14 23.79 1 30 C-2.12 27.44 -3.01 24.86 -4 21 C-4.78 13.05 -4.95 6.49 0 0 Z " fill="#080B09" transform="translate(47,215)"/>
<path d="M0 0 C0.66 0.33 1.32 0.66 2 1 C1.64 1.55 1.28 2.1 0.91 2.66 C-3.54 10.26 -4.21 17.32 -3 26 C-1.93 28.94 -0.71 31.47 0.91 34.14 C2 36 2 36 2 38 C-1 37 -1 37 -2.13 35.29 C-2.46 34.6 -2.79 33.9 -3.12 33.19 C-3.46 32.5 -3.79 31.81 -4.13 31.11 C-7.7 22.45 -6.34 13.51 -3 5 C-1.31 1.88 -1.31 1.88 0 0 Z " fill="#100E14" transform="translate(431,366)"/>
<path d="M0 0 C10.87 3.06 18.3 14.76 23.71 23.89 C26.22 28.64 26.22 28.64 27 31 C26.67 31.99 26.34 32.98 26 34 C25.48 33.09 24.97 32.19 24.44 31.25 C24.07 30.62 23.71 29.98 23.34 29.33 C22.33 27.58 21.34 25.83 20.35 24.07 C15.26 15.15 10.18 8.9 2.01 2.64 C1.35 2.1 0.68 1.56 0 1 C0 0.67 0 0.34 0 0 Z " fill="#0E1415" transform="translate(263,234)"/>
<path d="M0 0 C0.66 0.33 1.32 0.66 2 1 C0.88 2.29 -0.25 3.58 -1.38 4.88 C-2 5.59 -2.63 6.31 -3.27 7.05 C-4.47 8.41 -5.72 9.72 -7 11 C-9.12 10.62 -9.12 10.62 -11 10 C-11.33 8.68 -11.66 7.36 -12 6 C-11.34 5.67 -10.68 5.34 -10 5 C-9.67 4.01 -9.34 3.02 -9 2 C-8.26 2.23 -7.51 2.45 -6.75 2.69 C-3.94 3.29 -3.94 3.29 -1.69 1.56 C-1.13 1.05 -0.57 0.53 0 0 Z " fill="#8761CE" transform="translate(477,413)"/>
<path d="M0 0 C2.44 1.08 4.25 2.21 6.31 3.94 C13.29 9.29 21.54 10.34 30 12 C30 12.33 30 12.66 30 13 C19.42 13.44 10.15 11.5 2 4.38 C0 2 0 2 0 0 Z " fill="#0E1516" transform="translate(48,245)"/>
<path d="M0 0 C12 1.8 23.43 9.86 30.77 19.27 C31.18 19.84 31.58 20.41 32 21 C31.67 21.66 31.34 22.32 31 23 C30.27 22.18 30.27 22.18 29.52 21.35 C21.15 12.44 11.08 6.1 0 1 C0 0.67 0 0.34 0 0 Z " fill="#0B1110" transform="translate(416,137)"/>
<path d="M0 0 C-0.82 0.36 -1.64 0.73 -2.49 1.1 C-10.97 4.92 -19.38 8.79 -26.5 14.88 C-29 17 -29 17 -31 17 C-31.33 17.99 -31.66 18.98 -32 20 C-32.99 20.33 -33.98 20.66 -35 21 C-30.13 10.21 -15.46 3.67 -5.02 -0.5 C-3 -1 -3 -1 0 0 Z " fill="#0D1413" transform="translate(363,137)"/>
<path d="M0 0 C0.66 0 1.32 0 2 0 C1.34 4.02 0.1 7.52 -1.43 11.29 C-1.92 12.48 -2.4 13.67 -2.9 14.89 C-3.15 15.5 -3.41 16.12 -3.67 16.75 C-4.44 18.62 -5.2 20.5 -5.96 22.38 C-9.74 31.61 -9.74 31.61 -12 35 C-11.45 30.25 -10.49 26.15 -8.75 21.7 C-8.31 20.56 -7.86 19.42 -7.41 18.24 C-6.94 17.07 -6.48 15.9 -6 14.69 C-5.54 13.5 -5.07 12.3 -4.59 11.08 C-1.22 2.44 -1.22 2.44 0 0 Z " fill="#0A0E0D" transform="translate(143,142)"/>
<path d="M0 0 C1.61 0.45 3.21 0.91 4.81 1.38 C6.15 1.76 6.15 1.76 7.52 2.15 C10 3 10 3 13 5 C9.49 7.34 8.45 7.16 4.38 6.75 C3.39 6.66 2.41 6.57 1.4 6.48 C0.61 6.32 -0.18 6.16 -1 6 C-1.33 5.34 -1.66 4.68 -2 4 C-1.06 1.88 -1.06 1.88 0 0 Z " fill="#8862D0" transform="translate(421,415)"/>
<path d="M0 0 C0.66 0 1.32 0 2 0 C3.6 4.36 5.18 8.72 6.75 13.08 C7.29 14.56 7.83 16.05 8.38 17.53 C9.16 19.66 9.92 21.79 10.69 23.93 C10.94 24.59 11.18 25.25 11.44 25.93 C13.11 30.66 13.11 30.66 12 34 C10.28 29.64 8.58 25.28 6.87 20.92 C6.29 19.44 5.71 17.95 5.13 16.47 C4.29 14.34 3.46 12.21 2.62 10.07 C2.36 9.41 2.1 8.75 1.83 8.07 C0.73 5.21 0 3.09 0 0 Z " fill="#0C1010" transform="translate(336,251)"/>
<path d="M0 0 C0 0.66 0 1.32 0 2 C-0.94 2.51 -0.94 2.51 -1.91 3.04 C-4.79 4.61 -7.68 6.18 -10.56 7.75 C-11.55 8.29 -12.54 8.83 -13.56 9.38 C-14.53 9.91 -15.5 10.44 -16.5 10.98 C-17.45 11.5 -18.39 12.01 -19.37 12.54 C-21.64 13.8 -23.87 15.11 -26.09 16.45 C-27.05 16.96 -28.01 17.47 -29 18 C-29.66 17.67 -30.32 17.34 -31 17 C-27.86 15.1 -24.71 13.21 -21.56 11.31 C-20.68 10.78 -19.81 10.25 -18.9 9.71 C-2.76 0 -2.76 0 0 0 Z " fill="#0E1314" transform="translate(173,239)"/>
<path d="M0 0 C0.66 0.33 1.32 0.66 2 1 C1.42 1.98 0.84 2.96 0.24 3.97 C-5.04 13.06 -9.38 22.13 -13 32 C-14.76 26.87 -12.4 23.04 -10.44 18.25 C-10.1 17.38 -9.77 16.51 -9.42 15.62 C-7.04 9.71 -4.07 4.89 0 0 Z " fill="#0D1514" transform="translate(319,166)"/>
<path d="M0 0 C2.12 3.18 3.02 5.93 4.19 9.56 C6.22 15.41 8.68 20.02 12.45 24.91 C13.91 26.88 14.98 28.78 16 31 C8.38 27.28 4.67 19.65 1.89 11.91 C0.71 7.76 0 4.34 0 0 Z " fill="#0E1516" transform="translate(340,226)"/>
<path d="M0 0 C2 3 2 3 1.71 5.5 C-0.63 14.37 -3.13 23.76 -9 31 C-8.35 25.9 -6.84 21.41 -5.06 16.62 C-3.03 11.13 -1.33 5.71 0 0 Z " fill="#1B1A28" transform="translate(323,354)"/>
<path d="M0 0 C0.66 0 1.32 0 2 0 C2.46 1.18 2.92 2.37 3.39 3.59 C3.69 4.35 3.98 5.11 4.29 5.89 C4.93 7.55 5.57 9.21 6.21 10.87 C8.2 16 10.26 21.1 12.47 26.15 C13 28 13 28 12 31 C8.79 23.62 5.64 16.21 2.62 8.75 C2.23 7.79 2.23 7.79 1.83 6.8 C0 2.24 0 2.24 0 0 Z " fill="#0B0D0E" transform="translate(352,293)"/>
<path d="M0 0 C2.32 2.16 3.98 4.36 5.63 7.05 C6.11 7.83 6.58 8.61 7.08 9.42 C7.57 10.23 8.06 11.04 8.56 11.88 C9.06 12.68 9.55 13.48 10.06 14.31 C12.38 18.11 14.55 21.76 16 26 C12.57 24.86 12.34 24.39 10.62 21.39 C10.2 20.66 9.77 19.92 9.33 19.16 C8.67 18 8.67 18 8 16.81 C7.56 16.06 7.12 15.3 6.67 14.52 C0 2.94 0 2.94 0 0 Z " fill="#100F15" transform="translate(354,370)"/>
<path d="M0 0 C6.67 1.29 10.75 4.54 15.88 8.88 C17.03 9.81 17.03 9.81 18.21 10.77 C24.36 15.89 24.36 15.89 25 20 C23.29 18.72 21.63 17.38 20 16 C20 15.34 20 14.68 20 14 C19.18 13.63 19.18 13.63 18.34 13.25 C15.54 11.75 13.11 9.96 10.56 8.06 C7.81 6.01 5.11 4.06 2.15 2.31 C1.44 1.88 0.73 1.44 0 1 C0 0.67 0 0.34 0 0 Z " fill="#101B1B" transform="translate(269,200)"/>
<path d="M0 0 C0.33 0.66 0.66 1.32 1 2 C-2.35 9 -7.58 18 -15 21 C-13.42 17.37 -11.17 14.64 -8.62 11.62 C-5.5 7.86 -2.58 4.15 0 0 Z " fill="#130F18" transform="translate(302,404)"/>
<path d="M0 0 C0.66 0.33 1.32 0.66 2 1 C-2.27 5.85 -8.74 7.49 -14.88 8.88 C-18.13 9.01 -19.25 8.54 -22 7 C-20.37 6.62 -20.37 6.62 -18.71 6.23 C-17.27 5.88 -15.82 5.54 -14.38 5.19 C-13.66 5.02 -12.95 4.86 -12.21 4.69 C-8.72 3.84 -5.85 2.92 -2.6 1.3 C-1.74 0.87 -0.88 0.44 0 0 Z " fill="#110C14" transform="translate(462,428)"/>
<path d="M0 0 C3 1 3 1 4.19 2.62 C5.7 7.05 5.61 10.7 3.62 14.94 C3.09 15.62 2.55 16.3 2 17 C1.34 17 0.68 17 0 17 C-0.33 16.05 -0.66 15.1 -1 14.12 C-3.17 10.73 -3.52 10.51 -7.19 9.62 C-8.45 9.42 -9.7 9.21 -11 9 C-11 8.67 -11 8.34 -11 8 C-4.97 7.4 -4.97 7.4 -2.2 9.11 C-0.74 10.35 0.63 11.67 2 13 C3.2 8.15 3.2 8.15 1.56 3.69 C1.05 3.13 0.53 2.57 0 2 C0 1.34 0 0.68 0 0 Z " fill="#0B100F" transform="translate(72,211)"/>
<path d="M0 0 C0.7 1.57 0.7 1.57 1 4 C0.06 6.43 -0.92 8.59 -2.12 10.88 C-2.42 11.47 -2.72 12.07 -3.02 12.69 C-5.21 16.96 -7.82 20.41 -11 24 C-11.66 23.67 -12.32 23.34 -13 23 C-12.56 22.43 -12.13 21.86 -11.68 21.27 C-6.76 14.57 -3.26 7.63 0 0 Z " fill="#0D1313" transform="translate(461,229)"/>
<path d="M0 0 C0.33 1.32 0.66 2.64 1 4 C0.01 4.33 -0.98 4.66 -2 5 C-2.68 6.66 -3.35 8.33 -4 10 C-5.95 12.46 -5.95 12.46 -8.12 14.81 C-9.21 16 -9.21 16 -10.32 17.21 C-10.87 17.8 -11.43 18.39 -12 19 C-12 15.21 -10.83 14.03 -8.62 11 C-8 10.13 -7.37 9.27 -6.73 8.38 C-6.16 7.59 -5.59 6.81 -5 6 C-4.34 5.01 -3.68 4.02 -3 3 C-2.34 3 -1.68 3 -1 3 C-0.67 2.01 -0.34 1.02 0 0 Z " fill="#241D34" transform="translate(274,395)"/>
<path d="M0 0 C0 3 0 3 -1.38 4.63 C-2.32 5.48 -2.32 5.48 -3.28 6.36 C-4.3 7.29 -4.3 7.29 -5.33 8.24 C-6.05 8.88 -6.76 9.53 -7.5 10.19 C-8.57 11.17 -8.57 11.17 -9.67 12.17 C-11.44 13.79 -13.22 15.4 -15 17 C-15.66 16.67 -16.32 16.34 -17 16 C-12.52 9.98 -6.84 5.66 -1 1 C-0.67 0.67 -0.34 0.34 0 0 Z " fill="#17101C" transform="translate(260,414)"/>
<path d="M0 0 C3.95 1.5 5.47 3.73 7.69 7.25 C8.29 8.18 8.89 9.12 9.51 10.08 C11.06 13.12 11.63 15.63 12 19 C9.64 15.93 7.51 12.77 5.44 9.5 C4.84 8.56 4.24 7.62 3.62 6.66 C2.29 4.47 1.09 2.31 0 0 Z " fill="#080B09" transform="translate(448,160)"/>
<path d="M0 0 C5.73 5.54 11.57 11.36 16 18 C12.13 16.43 9.83 14.03 7 11 C6.38 10.34 5.76 9.68 5.12 9 C4.49 8.3 3.85 7.6 3.19 6.88 C2.58 6.21 1.98 5.55 1.36 4.87 C0 3 0 3 0 0 Z " fill="#0B090A" transform="translate(129,427)"/>
<path d="M0 0 C1.17 3.47 1.06 3.87 -0.65 7.45 C-1.4 8.73 -2.16 9.99 -2.94 11.25 C-3.32 11.9 -3.71 12.55 -4.11 13.22 C-5.06 14.82 -6.03 16.41 -7 18 C-7.66 18 -8.32 18 -9 18 C-7.65 13.46 -5.81 9.68 -3.38 5.62 C-2.74 4.57 -2.11 3.51 -1.46 2.41 C-0.74 1.22 -0.74 1.22 0 0 Z " fill="#0F0E13" transform="translate(313,385)"/>
<path d="M0 0 C0.66 0 1.32 0 2 0 C3.23 2.7 4.46 5.4 5.68 8.1 C6.46 9.8 7.24 11.5 8.04 13.18 C10.11 17.67 10.11 17.67 9 21 C7.87 18.63 6.75 16.25 5.62 13.88 C5.15 12.88 5.15 12.88 4.66 11.86 C2.83 7.97 1.27 4.12 0 0 Z " fill="#0C0C0E" transform="translate(368,332)"/>
<path d="M0 0 C1.44 2.74 2.52 5.42 3.44 8.38 C4.37 11.27 5.36 13.7 6.75 16.44 C7.16 17.28 7.58 18.13 8 19 C7.67 19.66 7.34 20.32 7 21 C1.89 16.52 -0.5 8.64 -1 2 C-0.67 1.34 -0.34 0.68 0 0 Z " fill="#0E1415" transform="translate(26,237)"/>
<path d="M0 0 C4.56 1.52 5.81 4.89 8 9 C12.29 18.12 12.29 18.12 11 22 C7.33 14.67 3.67 7.33 0 0 Z " fill="#0E0D10" transform="translate(288,95)"/>
<path d="M0 0 C2.78 2.47 4.33 5.17 6.06 8.44 C6.82 9.86 6.82 9.86 7.6 11.31 C8.75 13.53 9.89 15.76 11 18 C6.84 16.61 5.82 13.77 3.81 10.12 C3.44 9.49 3.08 8.85 2.7 8.19 C0 3.4 0 3.4 0 0 Z " fill="#0E0B10" transform="translate(118,409)"/>
<path d="M0 0 C1.96 0.96 3.9 1.94 5.79 3.04 C11.12 6.02 15.94 6.75 22 7 C21.67 7.66 21.34 8.32 21 9 C13.39 8.86 6.76 8.46 1 3 C0.67 2.01 0.34 1.02 0 0 Z " fill="#110D14" transform="translate(435,406)"/>
<path d="M0 0 C6.56 1.85 11.34 7.26 16 12 C15.67 12.66 15.34 13.32 15 14 C14.34 13.3 13.68 12.6 13 11.88 C9.21 8.07 4.82 4.41 0 2 C0 1.34 0 0.68 0 0 Z " fill="#0D0A0F" transform="translate(242,92)"/>
<path d="M0 0 C3.78 1.51 5.65 3.7 8.12 6.88 C8.81 7.74 9.49 8.6 10.2 9.49 C11.73 11.62 12.93 13.62 14 16 C8.84 11.78 3.99 7.38 0 2 C0 1.34 0 0.68 0 0 Z " fill="#0F0D11" transform="translate(399,392)"/>
<path d="M0 0 C3.96 1.98 7.92 3.96 12 6 C11.67 6.99 11.34 7.98 11 9 C9.35 8.07 7.7 7.13 6.06 6.19 C5.15 5.67 4.23 5.14 3.29 4.61 C1 3 1 3 0 0 Z " fill="#19292E" transform="translate(363,248)"/>
<path d="M0 0 C-1.6 1.15 -3.21 2.3 -4.81 3.44 C-6.15 4.39 -6.15 4.39 -7.52 5.37 C-10 7 -10 7 -13 8 C-11.8 4.4 -10.72 3.81 -7.62 1.75 C-6.83 1.21 -6.04 0.67 -5.23 0.11 C-3 -1 -3 -1 0 0 Z " fill="#0E1616" transform="translate(114,241)"/>
<path d="M0 0 C1.63 0.48 3.25 0.96 4.88 1.44 C5.78 1.7 6.68 1.97 7.62 2.25 C10 3 10 3 12 4 C12 4.66 12 5.32 12 6 C7.15 5.22 2.62 3.6 -2 2 C-1.34 1.34 -0.68 0.68 0 0 Z " fill="#0D1514" transform="translate(253,192)"/>
<path d="M0 0 C0.66 0.33 1.32 0.66 2 1 C1.53 1.53 1.06 2.06 0.57 2.61 C-0.05 3.32 -0.67 4.02 -1.31 4.75 C-2.23 5.79 -2.23 5.79 -3.18 6.86 C-4.87 8.85 -6.45 10.89 -8 13 C-7.48 8.83 -6.29 6.75 -3.44 3.69 C-2.8 2.99 -2.16 2.29 -1.5 1.57 C-1 1.05 -0.51 0.54 0 0 Z " fill="#0D1313" transform="translate(355,170)"/>
<path d="M0 0 C3.39 3.13 5.61 5.57 7 10 C5.87 9.07 4.75 8.13 3.62 7.19 C3 6.67 2.37 6.14 1.73 5.61 C0 4 0 4 -2 1 C-1.34 0.67 -0.68 0.34 0 0 Z " fill="#67A7D0" transform="translate(284,91)"/>
<path d="M0 0 C0.33 0.66 0.66 1.32 1 2 C-2.11 5.29 -5.02 7.84 -9 10 C-7.62 6.79 -6.08 4.95 -3.38 2.75 C-2.74 2.23 -2.11 1.71 -1.46 1.17 C-0.74 0.59 -0.74 0.59 0 0 Z " fill="#7F66C8" transform="translate(218,89)"/>
<path d="M0 0 C7.43 1 7.43 1 11 2 C11 2.66 11 3.32 11 4 C3.38 3.12 3.38 3.12 0 2 C0 1.34 0 0.68 0 0 Z " fill="#150E1B" transform="translate(170,459)"/>
<path d="M0 0 C1.44 0.11 2.88 0.24 4.31 0.38 C5.51 0.48 5.51 0.48 6.74 0.59 C9 1 9 1 12 3 C10.56 3.03 9.13 3.05 7.69 3.06 C6.49 3.08 6.49 3.08 5.26 3.1 C3 3 3 3 0 2 C0 1.34 0 0.68 0 0 Z " fill="#19282D" transform="translate(66,255)"/>
<path d="M0 0 C-2.82 2.82 -5.09 2.73 -9 3 C-11.23 2.02 -11.23 2.02 -13 1 C-11.4 0.64 -9.79 0.28 -8.19 -0.06 C-7.29 -0.26 -6.4 -0.46 -5.48 -0.66 C-3 -1 -3 -1 0 0 Z " fill="#1A1122" transform="translate(453,434)"/>
<path d="M0 0 C3.38 0.31 3.38 0.31 7 1 C7.66 1.99 8.32 2.98 9 4 C2.25 3.12 2.25 3.12 0 2 C0 1.34 0 0.68 0 0 Z " fill="#814EBB" transform="translate(442,409)"/>
<path d="M0 0 C2.64 0.33 5.28 0.66 8 1 C8 1.66 8 2.32 8 3 C8.99 3.33 9.98 3.66 11 4 C9.54 3.86 8.08 3.71 6.62 3.56 C5.41 3.44 5.41 3.44 4.16 3.32 C2 3 2 3 0 2 C0 1.34 0 0.68 0 0 Z " fill="#0C1413" transform="translate(402,132)"/>
<path d="M0 0 C0.66 0.66 1.32 1.32 2 2 C0.76 2.53 -0.5 3.05 -1.75 3.56 C-2.45 3.85 -3.14 4.14 -3.86 4.44 C-6.3 5.08 -7.64 4.8 -10 4 C-2.95 0.32 -2.95 0.32 0 0 Z " fill="#8446BF" transform="translate(239,454)"/>
<path d="M0 0 C3.38 0.75 3.38 0.75 7 2 C7.66 3.32 8.32 4.64 9 6 C5.37 4.68 1.74 3.36 -2 2 C-1.34 1.34 -0.68 0.68 0 0 Z " fill="#0E1717" transform="translate(71,191)"/>
<path d="M0 0 C0.33 0.99 0.66 1.98 1 3 C-0.43 5.04 -0.43 5.04 -2.44 7.19 C-3.1 7.9 -3.75 8.62 -4.43 9.36 C-4.95 9.9 -5.47 10.44 -6 11 C-6 7.39 -5.18 6.59 -3 3.81 C-2.44 3.1 -1.89 2.38 -1.31 1.64 C-0.88 1.1 -0.45 0.56 0 0 Z " fill="#130F17" transform="translate(268,403)"/>
<path d="M0 0 C2.97 0.99 5.94 1.98 9 3 C8.67 3.66 8.34 4.32 8 5 C4.63 4.45 2.92 3.95 0 2 C0 1.34 0 0.68 0 0 Z " fill="#8A5CCD" transform="translate(263,82)"/>
<path d="M0 0 C1.32 0.33 2.64 0.66 4 1 C3.67 2.98 3.34 4.96 3 7 C2.01 6.34 1.02 5.68 0 5 C-0.19 2.38 -0.19 2.38 0 0 Z " fill="#070705" transform="translate(329,243)"/>
<path d="M0 0 C3.36 1.39 5.07 2.92 7 6 C7 6.66 7 7.32 7 8 C2.61 6.54 2.12 4.02 0 0 Z " fill="#0C1211" transform="translate(448,160)"/>
<path d="M0 0 C0.33 0.99 0.66 1.98 1 3 C0.01 3.33 -0.98 3.66 -2 4 C-2.33 4.99 -2.66 5.98 -3 7 C-3.99 7.33 -4.98 7.66 -6 8 C-4.56 4.63 -2.67 2.49 0 0 Z " fill="#0E1615" transform="translate(334,150)"/>
<path d="M0 0 C0.81 1.69 0.81 1.69 1 4 C-1.44 6.75 -1.44 6.75 -4 9 C-2.94 5.6 -1.99 2.99 0 0 Z " fill="#15121C" transform="translate(313,385)"/>
<path d="M0 0 C3.24 0.35 4.62 0.56 6.81 3.06 C7.2 3.7 7.6 4.34 8 5 C7.67 5.66 7.34 6.32 7 7 C5.83 6.02 4.66 5.04 3.5 4.06 C2.85 3.52 2.2 2.97 1.53 2.41 C1.03 1.94 0.52 1.48 0 1 C0 0.67 0 0.34 0 0 Z " fill="#181722" transform="translate(473,359)"/>
</svg>
